<?xml version="1.0" encoding="iso-8859-1"?>
<!-- Uploaded to: SVG Repo, www.svgrepo.com, Generator: SVG Repo Mixer Tools -->
<svg version="1.1" id="Layer_1" xmlns="http://www.w3.org/2000/svg" xmlns:xlink="http://www.w3.org/1999/xlink" 
	 viewBox="0 0 512.001 512.001" xml:space="preserve">
<path style="fill:#B7A982;" d="M433.569,83.092c-3.371-3.568-8.064-5.571-12.973-5.571H154.527l13.089,356.959h234.716
	c9.463,0,17.282-7.366,17.819-16.815l18.264-321.323C438.693,91.442,436.941,86.662,433.569,83.092z"/>
<polygon style="fill:#CAB98E;" points="283.392,77.521 154.527,77.521 167.616,434.481 283.392,434.481 "/>
<path style="fill:#6D6459;" d="M433.516,451.699c-1.684,0-3.376-0.087-5.075-0.265l-54.819-5.715
	c-9.803-1.021-16.923-9.797-15.9-19.603l36.774-352.779c0.49-4.708,2.832-9.029,6.507-12.012c3.675-2.981,8.38-4.387,13.096-3.891
	l54.819,5.715c12.767,1.33,24.253,7.554,32.341,17.524c8.087,9.97,11.809,22.492,10.478,35.26l-30.51,292.682
	c-1.329,12.766-7.553,24.254-17.524,32.342C455.057,447.969,444.494,451.699,433.516,451.699z"/>
<rect x="36.692" y="78.656" transform="matrix(0.9941 -0.1085 0.1085 0.9941 -27.1735 12.5949)" style="fill:#E5E3DC;" width="130.921" height="354.7"/>
<path style="fill:#897D70;" d="M148.012,54.75c8.989,0,16.724,6.77,17.721,15.913l38.48,352.6c0.514,4.705-0.864,9.423-3.828,13.113
	c-2.964,3.691-7.272,6.052-11.978,6.566L58.264,457.143c-9.791,1.079-18.609-6.008-19.678-15.806l-38.48-352.6
	c-0.514-4.705,0.864-9.423,3.828-13.114s7.272-6.052,11.978-6.566l130.143-14.202C146.711,54.785,147.366,54.75,148.012,54.75z"/>
<g>
	<path style="fill:#E5E3DC;" d="M15.013,165.371l44.947-4.905c9.799-1.068,16.877-9.879,15.806-19.678
		c-0.997-9.143-8.731-15.913-17.721-15.913c-0.646,0-1.302,0.035-1.959,0.107l-44.947,4.905c-2.286,0.249-4.413,0.934-6.334,1.939
		l3.603,33.019C10.504,165.413,12.729,165.623,15.013,165.371z"/>
	<path style="fill:#E5E3DC;" d="M20.305,213.868l44.948-4.905c9.799-1.068,16.877-9.879,15.806-19.678
		c-0.997-9.143-8.731-15.913-17.721-15.913c-0.646,0-1.301,0.035-1.959,0.107l-44.948,4.905c-2.285,0.249-4.413,0.934-6.334,1.939
		l3.603,33.019C15.794,213.907,18.019,214.117,20.305,213.868z"/>
	<path style="fill:#E5E3DC;" d="M25.598,262.366l44.947-4.906c9.799-1.068,16.876-9.881,15.805-19.679
		c-0.997-9.141-8.731-15.912-17.721-15.912c-0.647,0-1.301,0.035-1.959,0.107l-44.947,4.906c-2.285,0.249-4.412,0.934-6.332,1.939
		l3.604,33.022C21.088,262.407,23.313,262.616,25.598,262.366z"/>
	<path style="fill:#E5E3DC;" d="M30.892,310.861l44.947-4.906c9.799-1.069,16.876-9.881,15.805-19.679
		c-0.997-9.141-8.731-15.912-17.721-15.912c-0.647,0-1.301,0.035-1.959,0.107l-44.947,4.906c-2.285,0.249-4.412,0.934-6.332,1.939
		l3.604,33.02C26.38,310.903,28.605,311.111,30.892,310.861z"/>
	<path style="fill:#E5E3DC;" d="M36.183,359.358l44.947-4.905c9.799-1.069,16.877-9.879,15.806-19.678
		c-0.997-9.143-8.731-15.913-17.721-15.913c-0.646,0-1.302,0.034-1.959,0.107l-44.947,4.905c-2.286,0.249-4.413,0.934-6.334,1.939
		l3.603,33.018C31.674,359.399,33.899,359.609,36.183,359.358z"/>
	<path style="fill:#E5E3DC;" d="M41.475,407.854l44.948-4.905c9.799-1.069,16.877-9.879,15.806-19.678
		c-0.997-9.143-8.731-15.913-17.721-15.913c-0.646,0-1.301,0.035-1.959,0.107l-44.948,4.905c-2.285,0.249-4.413,0.934-6.334,1.939
		l3.603,33.018C36.964,407.893,39.189,408.102,41.475,407.854z"/>
</g>
<path style="fill:#E27F52;" d="M229.448,444.495c-9.368,0-17.12-7.425-17.448-16.86L200.102,86.776
	c-0.337-9.643,7.207-17.731,16.848-18.068c9.653-0.38,17.731,7.206,18.069,16.848l11.899,340.858
	c0.337,9.643-7.207,17.731-16.848,18.068C229.86,444.491,229.654,444.495,229.448,444.495z"/>
<path style="fill:#C36F47;" d="M280.39,444.595c-9.528,0-17.253-7.725-17.253-17.253V85.85c0-9.528,7.725-17.253,17.253-17.253
	c9.528,0,17.253,7.725,17.253,17.253v341.491C297.643,436.87,289.918,444.595,280.39,444.595z"/>
<path style="fill:#E27F52;" d="M280.39,444.595c-9.528,0-17.253-7.725-17.253-17.253V85.85c0-9.528,7.725-17.253,17.253-17.253
	V444.595z"/>
<path style="fill:#C36F47;" d="M331.797,444.495c-0.206,0-0.413-0.004-0.62-0.012c-9.643-0.336-17.185-8.425-16.848-18.068
	l11.899-340.858c0.337-9.641,8.424-17.233,18.069-16.848c9.643,0.336,17.185,8.425,16.848,18.068l-11.899,340.858
	C348.917,437.069,341.164,444.495,331.797,444.495z"/>
</svg>